<svg id="visual" viewBox="0 0 1440 900" width="1440" height="900" xmlns="http://www.w3.org/2000/svg" xmlns:xlink="http://www.w3.org/1999/xlink" version="1.1"><path d="M0 208L131 199L262 262L393 253L524 163L655 190L785 199L916 217L1047 172L1178 217L1309 217L1440 289L1440 0L1309 0L1178 0L1047 0L916 0L785 0L655 0L524 0L393 0L262 0L131 0L0 0Z" fill="#0a6789"></path><path d="M0 298L131 307L262 343L393 334L524 289L655 307L785 289L916 334L1047 298L1178 352L1309 307L1440 406L1440 287L1309 215L1178 215L1047 170L916 215L785 197L655 188L524 161L393 251L262 260L131 197L0 206Z" fill="#00728c"></path><path d="M0 370L131 388L262 433L393 415L524 397L655 406L785 352L916 433L1047 361L1178 424L1309 406L1440 505L1440 404L1309 305L1178 350L1047 296L916 332L785 287L655 305L524 287L393 332L262 341L131 305L0 296Z" fill="#007d8d"></path><path d="M0 676L131 685L262 712L393 703L524 667L655 712L785 658L916 622L1047 640L1178 631L1309 685L1440 694L1440 503L1309 404L1178 422L1047 359L916 431L785 350L655 404L524 395L393 413L262 431L131 386L0 368Z" fill="#00878a"></path><path d="M0 793L131 775L262 793L393 793L524 766L655 793L785 775L916 721L1047 712L1178 712L1309 766L1440 802L1440 692L1309 683L1178 629L1047 638L916 620L785 656L655 710L524 665L393 701L262 710L131 683L0 674Z" fill="#009180"></path><path d="M0 901L131 901L262 901L393 901L524 901L655 901L785 901L916 901L1047 901L1178 901L1309 901L1440 901L1440 800L1309 764L1178 710L1047 710L916 719L785 773L655 791L524 764L393 791L262 791L131 773L0 791Z" fill="#0a996f"></path></svg>